<?xml version="1.0" encoding="UTF-8"?>
<svg id="Layer_1" xmlns="http://www.w3.org/2000/svg" version="1.1" viewBox="0 0 800 800">
  <!-- Generator: Adobe Illustrator 30.2.1, SVG Export Plug-In . SVG Version: 2.1.1 Build 1)  -->
  <defs>
    <style>
      .st0 {
        fill: #1ca7ec;
      }

      .st1 {
        fill: none;
      }
    </style>
  </defs>
  <path class="st0" d="M215,573.87l266.03-128.17,99.33-237.17-237.2,99.33-128.17,266ZM439.7,428.6l-153.3,73.87,73.87-153.33,79.43,79.47ZM400,40c-198.82,0-360,161.18-360,360s161.18,360,360,360,360-161.18,360-360c0,0,0,0,0,0-.22-198.73-161.27-359.78-360-360ZM400,726.67c-180.41,0-326.67-146.25-326.67-326.67,0-180.41,146.25-326.67,326.67-326.67,180.41,0,326.67,146.25,326.67,326.67h0c-.18,180.34-146.33,326.48-326.67,326.67h0Z"/>
  <path class="st1" d="M0,0h800v800H0V0Z"/>
</svg>