<?xml version="1.0" encoding="UTF-8"?>
<svg id="CHECKLIST" xmlns="http://www.w3.org/2000/svg" version="1.1" viewBox="0 0 800 800">
  <!-- Generator: Adobe Illustrator 30.2.1, SVG Export Plug-In . SVG Version: 2.1.1 Build 1)  -->
  <defs>
    <style>
      .st0 {
        fill: #1ca7ec;
      }
    </style>
  </defs>
  <path class="st0" d="M669.64,124.04h-66.83v-37.9c0-7.71-6.25-13.96-13.96-13.96h-101.03C479.2,31.37,442.89,1.02,400,1.02s-79.2,30.34-87.82,71.15h-101.03c-7.71,0-13.96,6.25-13.96,13.96v37.9h-66.83c-7.71,0-13.96,6.25-13.96,13.96v647.01c0,7.71,6.25,13.96,13.96,13.96h539.28c7.71,0,13.96-6.25,13.96-13.96V138c0-7.71-6.25-13.96-13.96-13.96ZM225.12,100.1h99.24c7.39,0,13.49-5.75,13.94-13.12,1.97-32.54,29.08-58.03,61.71-58.03s59.74,25.49,61.71,58.03c.45,7.37,6.55,13.12,13.94,13.12h99.24v85.11H225.12v-85.11ZM655.68,771.05H144.32V151.97h52.86v47.21c0,7.71,6.25,13.96,13.96,13.96h377.7c7.71,0,13.96-6.25,13.96-13.96v-47.21h52.86v619.08Z"/>
  <path class="st0" d="M294.95,304.01l-57.45,57.45-25.69-25.69c-5.45-5.45-14.3-5.45-19.75,0-5.45,5.45-5.45,14.3,0,19.75l35.56,35.57c2.73,2.73,6.3,4.09,9.88,4.09s7.15-1.36,9.88-4.09l67.33-67.33c5.45-5.45,5.45-14.3,0-19.75-5.45-5.45-14.3-5.45-19.75,0Z"/>
  <path class="st0" d="M366.66,333.58c-7.71,0-13.96,6.25-13.96,13.96s6.25,13.96,13.96,13.96h231.41c7.71,0,13.96-6.25,13.96-13.96s-6.25-13.96-13.96-13.96h-231.41Z"/>
  <path class="st0" d="M294.95,462.19l-57.45,57.45-25.69-25.69c-5.45-5.45-14.3-5.45-19.75,0-5.45,5.45-5.45,14.3,0,19.75l35.56,35.56c2.73,2.73,6.3,4.09,9.88,4.09s7.15-1.36,9.88-4.09l67.33-67.33c5.45-5.45,5.45-14.29,0-19.75-5.45-5.45-14.3-5.45-19.75,0Z"/>
  <path class="st0" d="M598.07,491.76h-231.41c-7.71,0-13.96,6.25-13.96,13.96s6.25,13.96,13.96,13.96h231.41c7.71,0,13.96-6.25,13.96-13.96s-6.25-13.96-13.96-13.96Z"/>
  <path class="st0" d="M294.95,620.37l-57.45,57.45-25.69-25.69c-5.45-5.45-14.3-5.45-19.75,0-5.45,5.46-5.45,14.3,0,19.75l35.56,35.56c2.73,2.73,6.3,4.09,9.88,4.09s7.15-1.36,9.88-4.09l67.33-67.33c5.45-5.46,5.45-14.3,0-19.75-5.45-5.45-14.3-5.45-19.75,0Z"/>
  <path class="st0" d="M598.07,649.94h-231.41c-7.71,0-13.96,6.25-13.96,13.96s6.25,13.96,13.96,13.96h231.41c7.71,0,13.96-6.25,13.96-13.96s-6.25-13.96-13.96-13.96Z"/>
</svg>