<?xml version="1.0" encoding="UTF-8"?>
<svg id="Layer_1" xmlns="http://www.w3.org/2000/svg" version="1.1" viewBox="0 0 800 800">
  <!-- Generator: Adobe Illustrator 30.2.1, SVG Export Plug-In . SVG Version: 2.1.1 Build 1)  -->
  <defs>
    <style>
      .st0 {
        fill: #1ca7ec;
      }
    </style>
  </defs>
  <path class="st0" d="M650,531.25c-39.52.08-74.52,19.53-95.98,49.35l-.25.35-291.05-145.52c3.8-10.55,6-22.73,6-35.42s-2.2-24.87-6.22-36.18l.22.75,291.05-145.5c21.75,29.75,56.52,48.83,95.77,48.83,65.35,0,118.32-52.98,118.32-118.32s-52.97-118.32-118.32-118.32-118.32,52.97-118.32,118.32v.45-.02c.17,12.72,2.37,24.87,6.25,36.22l-.25-.82-291.05,145.53c-21.8-30.22-56.92-49.67-96.6-49.67-65.57,0-118.75,53.17-118.75,118.75s53.18,118.75,118.75,118.75c39.67,0,74.8-19.45,96.37-49.35l.25-.35,291.05,145.52c-3.65,10.55-5.82,22.7-6,35.35v.08c0,65.57,53.18,118.75,118.75,118.75s118.75-53.18,118.75-118.75-53.18-118.75-118.75-118.75h0ZM650,68.75c44.88,0,81.25,36.37,81.25,81.25s-36.37,81.25-81.25,81.25-81.25-36.37-81.25-81.25h0c.05-44.85,36.4-81.2,81.25-81.25h0ZM150,481.25c-44.88,0-81.25-36.37-81.25-81.25s36.37-81.25,81.25-81.25,81.25,36.37,81.25,81.25h0c-.05,44.85-36.4,81.2-81.25,81.25h0ZM650,731.25c-44.88,0-81.25-36.37-81.25-81.25s36.37-81.25,81.25-81.25,81.25,36.37,81.25,81.25h0c-.02,44.85-36.4,81.23-81.25,81.25h0Z"/>
</svg>