<?xml version="1.0" encoding="UTF-8"?>
<svg id="Layer_1" xmlns="http://www.w3.org/2000/svg" version="1.1" viewBox="0 0 800 800">
  <!-- Generator: Adobe Illustrator 30.2.1, SVG Export Plug-In . SVG Version: 2.1.1 Build 1)  -->
  <defs>
    <style>
      .st0 {
        fill: #1ca7ec;
        fill-rule: evenodd;
      }
    </style>
  </defs>
  <path class="st0" d="M0,222.33C0,197.73,19.72,177.78,44.44,177.78h155.67c12.22,0,26.54-8.85,31.98-19.73l24.72-49.43c5.45-10.89,19.99-19.73,31.69-19.73h223.02c12.05,0,26.25,8.85,31.69,19.73l24.72,49.43c5.45,10.89,19.41,19.73,31.98,19.73h155.67c24.54,0,44.44,20.26,44.44,44.55v444.22c0,24.61-19.78,44.55-44.15,44.55H44.15C19.77,711.11,0,690.86,0,666.56V222.33ZM44.45,222.22h197.22c12.04,0,26.1-8.85,31.39-19.73l33.62-69.16h188.89l31.16,68.27c5.2,11.39,19.41,20.62,31.25,20.62h197.59v444.44H44.45V222.22ZM400,622.22c98.19,0,177.78-79.59,177.78-177.78s-79.59-177.78-177.78-177.78-177.78,79.59-177.78,177.78,79.59,177.78,177.78,177.78ZM400,577.78c73.64,0,133.33-59.7,133.33-133.33s-59.7-133.33-133.33-133.33-133.33,59.7-133.33,133.33,59.7,133.33,133.33,133.33ZM666.67,400c24.55,0,44.44-19.9,44.44-44.44s-19.9-44.44-44.44-44.44-44.44,19.9-44.44,44.44,19.9,44.44,44.44,44.44ZM88.89,155.56c0-12.27,9.51-22.22,22.43-22.22h44.03c12.39,0,22.43,10.31,22.43,22.22v22.22h-88.89v-22.22Z"/>
</svg>